<?xml version="1.0" encoding="UTF-8" standalone="no"?>
<!-- Created with Inkscape (http://www.inkscape.org/) -->

<svg
   xmlns:dc="http://purl.org/dc/elements/1.1/"
   xmlns:cc="http://creativecommons.org/ns#"
   xmlns:rdf="http://www.w3.org/1999/02/22-rdf-syntax-ns#"
   xmlns:svg="http://www.w3.org/2000/svg"
   xmlns="http://www.w3.org/2000/svg"
   xmlns:sodipodi="http://sodipodi.sourceforge.net/DTD/sodipodi-0.dtd"
   xmlns:inkscape="http://www.inkscape.org/namespaces/inkscape"
   width="66.145836mm"
   height="24.227112mm"
   viewBox="0 0 209.37501 76.687391"
   id="svg2"
   version="1.1"
   inkscape:version="0.92.2 (5c3e80d, 2017-08-06)"
   sodipodi:docname="Logo5.svg">
  <defs
     id="defs4" />
  <sodipodi:namedview
     id="base"
     pagecolor="#ffffff"
     bordercolor="#666666"
     borderopacity="1.0"
     inkscape:pageopacity="0.0"
     inkscape:pageshadow="2"
     inkscape:zoom="1.979899"
     inkscape:cx="83.910687"
     inkscape:cy="47.711853"
     inkscape:document-units="px"
     inkscape:current-layer="g337"
     showgrid="false"
     inkscape:window-width="1366"
     inkscape:window-height="705"
     inkscape:window-x="-8"
     inkscape:window-y="-8"
     inkscape:window-maximized="1"
     scale-x="0.8375"
     fit-margin-top="0"
     fit-margin-left="0"
     fit-margin-right="0"
     fit-margin-bottom="0" />
  <metadata
     id="metadata7">
    <rdf:RDF>
      <cc:Work
         rdf:about="">
        <dc:format>image/svg+xml</dc:format>
        <dc:type
           rdf:resource="http://purl.org/dc/dcmitype/StillImage" />
        <dc:title></dc:title>
      </cc:Work>
    </rdf:RDF>
  </metadata>
  <g
     inkscape:label="Laag 1"
     inkscape:groupmode="layer"
     id="layer1"
     transform="translate(-277.31152,-305.83218)">
    <g
       id="g8362"
       transform="translate(54.285711,-171.42857)">
      <g
         transform="matrix(0.12276,0,0,0.12276,298.69762,450.05166)"
         id="g337">
        <path
           style="opacity:1;fill:#f9f9f9;fill-opacity:1;fill-rule:evenodd;stroke:none;stroke-width:8.24499989;stroke-linecap:square;stroke-linejoin:round;stroke-miterlimit:4;stroke-dasharray:none;stroke-dashoffset:0;stroke-opacity:1"
           d="m 98.767237,599.33139 v -162.1465 l 26.011433,0.2696 26.01143,0.2696 0.26055,59.8515 0.26055,59.8516 h 79.79404 79.79404 v -60.1041 -60.1041 h 26.26396 26.26397 v 162.1295 162.1295 h -26.26397 -26.26396 v -78.2869 -78.2868 h -79.80205 -79.80205 v 78.2868 78.2869 H 125.03121 98.767237 Z"
           id="path8231"
           inkscape:connector-curvature="0" />
        <path
           style="opacity:1;fill:#f9f9f9;fill-opacity:1;fill-rule:evenodd;stroke:none;stroke-width:8.24499989;stroke-linecap:square;stroke-linejoin:round;stroke-miterlimit:4;stroke-dasharray:none;stroke-dashoffset:0;stroke-opacity:1"
           d="m 739.45346,599.60099 0.2556,-161.8769 26.0114,-0.2696 26.0115,-0.2696 v 162.1465 162.1466 h -26.2671 -26.267 z"
           id="path8233"
           inkscape:connector-curvature="0" />
        <path
           style="opacity:1;fill:#f9f9f9;fill-opacity:1;fill-rule:evenodd;stroke:none;stroke-width:8.24499989;stroke-linecap:square;stroke-linejoin:round;stroke-miterlimit:4;stroke-dasharray:none;stroke-dashoffset:0;stroke-opacity:1"
           d="m 867.74286,599.60099 0.2556,-161.8769 48.4873,0.034 c 50.6004,0.036 61.9146,0.7115 77.1407,4.6054 15.69774,4.0145 29.70304,12.5926 39.15554,23.9824 7.0038,8.4392 14.8343,24.2991 17.5383,35.5223 3.9225,16.2801 3.6781,39.1286 -0.5996,56.0635 -2.1012,8.3186 -9.5078,23.2093 -14.5338,29.2198 -11.3365,13.5572 -28.0827,22.6195 -47.97484,25.962 -4.1948,0.7048 -7.5053,1.6239 -7.3568,2.0424 0.2641,0.7438 38.46774,51.4409 85.14304,112.9865 12.851,16.9453 23.6991,31.3779 24.1067,32.0723 0.586,0.9984 -5.4706,1.2627 -28.9269,1.2627 H 1030.51 l -33.27354,-44.6535 c -18.3004,-24.5595 -42.3806,-56.9475 -53.5115,-71.9734 -18.5212,-25.0024 -20.5134,-27.3467 -23.486,-27.6364 l -3.2481,-0.3165 v 72.2899 72.2899 h -24.7518 -24.7518 l 0.2556,-161.8769 z m 98.7455,-26.5369 c 17.326,-3.7696 26.0905,-10.6125 30.2798,-23.6413 2.0271,-6.3043 2.2299,-8.5839 1.8238,-20.5049 -0.4915,-14.4317 -2.0591,-20.4174 -7.3441,-28.0436 -7.7679,-11.2092 -24.2105,-16.5226 -55.2931,-17.8679 l -14.9233,-0.646 v 46.7664 46.7663 l 18.9404,-0.5903 c 11.5412,-0.3597 21.9,-1.2343 26.5165,-2.2387 z"
           id="path8235"
           inkscape:connector-curvature="0" />
        <path
           style="opacity:1;fill:#f9f9f9;fill-opacity:1;fill-rule:evenodd;stroke:none;stroke-width:8.24499989;stroke-linecap:square;stroke-linejoin:round;stroke-miterlimit:4;stroke-dasharray:none;stroke-dashoffset:0;stroke-opacity:1"
           d="m -202.25821,761.01009 c 0,-0.2573 27.82049,-33.7817 61.82332,-74.4987 66.533167,-79.6708 71.003707,-85.2071 80.579217,-99.7898 18.90003,-28.7832 24.59626,-51.0896 18.57279,-72.731 -3.35759,-12.0633 -12.40978,-22.9475 -23.65636,-28.444 -6.26415,-3.0615 -18.76294,-5.9048 -25.90707,-5.8936 -27.135397,0.043 -48.684217,17.5121 -52.955177,42.93 l -1.27199,7.57 h -25.05684 -25.05683 l 0.0133,-6.8185 c 0.0174,-8.9685 3.05142,-23.3671 6.80737,-32.3065 8.72837,-20.7742 27.33665,-38.6954 49.57633,-47.7459 26.42754,-10.7548 65.511067,-11.9717 93.076757,-2.898 29.07796,9.5715 48.8755303,30.0553 56.27741,58.2281 2.20449,8.3907 2.5855,12.0314 2.61373,24.9748 0.046,21.0764 -3.2540797,35.4089 -12.79233968,55.5584 -11.14712032,23.5483 -25.65359032,42.8422 -79.11803032,105.2285 -16.26976,18.9848 -29.581377,34.781 -29.581377,35.1028 0,0.3217 27.501397,0.585 61.114227,0.585 h 61.11423 v 20.7081 20.7082 h -108.08632 c -59.447477,0 -108.086317,-0.2106 -108.086317,-0.4679 z"
           id="path8237"
           inkscape:connector-curvature="0" />
        <path
           style="opacity:1;fill:#f9f9f9;fill-opacity:1;fill-rule:evenodd;stroke:none;stroke-width:8.24499989;stroke-linecap:square;stroke-linejoin:round;stroke-miterlimit:4;stroke-dasharray:none;stroke-dashoffset:0;stroke-opacity:1"
           d="m -508.33444,598.78239 v -162.6955 l 3.75344,0.3135 c 3.56399,0.2977 5.23374,2.0254 33.0825,34.23 28.92129,33.4449 75.25011,86.8011 142.46614,164.0761 18.88986,21.7168 36.4933,41.9645 39.11878,44.995 l 4.77358,5.51 0.0246,-124.5013 0.0246,-124.5014 h 16.16244 16.16244 v 162.6346 162.6346 h -3.88912 c -3.51548,0 -4.41308,-0.6066 -9.34291,-6.3135 -2.99957,-3.4724 -24.31883,-27.9298 -47.37612,-54.3498 -41.55956,-47.6208 -84.89534,-97.3444 -134.15254,-153.9271 -14.05807,-16.1488 -25.9905,-29.513 -26.5165,-29.6982 -0.59832,-0.2106 -0.95637,45.4562 -0.95637,121.9759 v 122.3127 h -16.66752 -16.66752 v -162.6956 z"
           id="path8239"
           inkscape:connector-curvature="0" />
        <path
           style="opacity:1;fill:#f9f9f9;fill-opacity:1;fill-rule:evenodd;stroke:none;stroke-width:8.24499989;stroke-linecap:square;stroke-linejoin:round;stroke-miterlimit:4;stroke-dasharray:none;stroke-dashoffset:0;stroke-opacity:1"
           d="m -616.42076,598.84339 v -162.6346 h 16.66752 16.66751 v 162.6346 162.6346 h -16.66751 -16.66752 z"
           id="path8241"
           inkscape:connector-curvature="0" />
        <g
           id="g8276"
           transform="translate(-370.13126,-1238.214)">
          <path
             sodipodi:nodetypes="sssscccssscs"
             inkscape:connector-curvature="0"
             id="path8223-5"
             d="m 1024.2838,2056.3404 c -7.7168,-40.7219 -31.55651,-78.8718 -61.91693,-99.0835 -16.55531,-11.0213 -31.49765,-16.8107 -57.89228,-22.4301 -17.49927,-3.7257 -34.91801,-8.9234 -48.01592,-14.3278 -6.11143,-2.5217 -41.10107,-19.1686 -40.79038,-20.9194 -2.62349,-0.026 4.64305,-9.6503 18.43865,-8.8209 6.76053,-22.3488 14.21962,-15.5578 37.50401,-7.3193 7.2226,2.5256 21.31422,6.5732 31.31473,8.9947 10.00051,2.4214 22.27387,5.8292 27.27412,7.5727 58.90696,20.5402 93.4856,66.7156 98.5774,131.6378 1.1106,14.1598 0.1801,33.0981 -1.656,33.7056 -0.6159,0.2038 -1.8099,-3.5874 -2.8374,-9.0098 z"
             style="opacity:1;fill:#6d6e70;fill-opacity:1;fill-rule:evenodd;stroke:none;stroke-width:8.24499989;stroke-linecap:square;stroke-linejoin:round;stroke-miterlimit:4;stroke-dasharray:none;stroke-dashoffset:0;stroke-opacity:1" />
          <path
             sodipodi:nodetypes="cscssccc"
             inkscape:connector-curvature="0"
             id="path8225-8"
             d="m 807.71881,1894.3951 c -38.27092,-27.9848 -59.74473,-71.9557 -59.83182,-122.5145 -0.0138,-8.0121 0.32004,-11.3352 1.11222,-11.0711 0.62257,0.2075 2.60088,4.4914 4.39624,9.5198 6.17105,17.2835 17.75411,37.6269 29.83286,52.3956 13.18503,16.1213 66.02963,54.9402 71.17501,54.302 21.09525,8.5997 -36.84658,23.564 -37.16924,23.9388 -2.90804,-1.9971 -6.84151,-4.6046 -9.51527,-6.5706 z"
             style="opacity:1;fill:#6d6e70;fill-opacity:1;fill-rule:evenodd;stroke:none;stroke-width:8.24499989;stroke-linecap:square;stroke-linejoin:round;stroke-miterlimit:4;stroke-dasharray:none;stroke-dashoffset:0;stroke-opacity:1" />
        </g>
        <g
           id="g8322"
           transform="translate(-352.67857,-340.17857)"
           style="fill:#f9f9f9;fill-opacity:1">
          <path
             inkscape:connector-curvature="0"
             id="path8318"
             d="m 735.54388,1185.0898 c 0,-0.8322 2.92319,-11.0107 6.49598,-22.619 3.5728,-11.6083 8.7652,-28.4989 11.53869,-37.5346 20.8109,-67.7997 59.65776,-163.15397 112.88067,-277.07909 9.71085,-20.78634 17.65609,-38.25801 17.65609,-38.82593 0,-0.56791 -5.85837,-13.13234 -13.01861,-27.92093 -7.16024,-14.7886 -16.40969,-33.95978 -20.55433,-42.60264 -4.14465,-8.64286 -11.08767,-23.00401 -15.42892,-31.91367 l -7.8932,-16.1994 -11.90962,-0.4024 c -19.48693,-0.65841 -34.40007,-9.15158 -43.70274,-24.8891 -2.88421,-4.87928 -3.84531,-8.74791 -4.35329,-17.52283 -0.60564,-10.46209 -0.32619,-11.92271 3.93847,-20.58545 4.9625,-10.08028 14.37641,-18.90459 23.80488,-22.31397 5.01295,-1.81271 5.10817,-1.98903 4.29159,-7.94665 -1.785,-13.02303 -9.15099,-21.75909 -21.37387,-25.34942 -4.8114,-1.41329 -6.0293,-2.46561 -6.39525,-5.52572 -0.47312,-3.95631 0.60378,-4.44998 8.27519,-3.79351 13.29986,1.13813 29.83077,18.44956 30.02449,31.44212 0.086,5.7669 1.608,6.70322 12.15235,7.47585 17.70848,1.29758 33.50828,11.33633 41.07136,26.09558 4.26959,8.33205 4.9903,22.80715 1.61255,32.38755 -2.57838,7.31313 -13.29566,20.26665 -19.48586,23.55172 -2.67231,1.41816 -4.04146,-1.17939 26.83396,50.90942 6.90518,11.64948 8.46943,13.28168 21.51258,22.44701 14.00928,9.84421 14.08093,9.87417 17.78835,7.43703 26.76103,-17.59193 23.22526,-13.77436 44.54046,-48.09023 l 19.47763,-31.35749 -4.53266,-3.32593 c -5.78437,-4.2444 -8.73684,-7.95335 -13.31364,-16.72483 -4.79273,-9.18531 -5.09393,-23.84932 -0.69829,-33.99691 3.87236,-8.93954 14.12905,-18.98851 24.19856,-23.70851 7.11876,-3.33685 9.92686,-3.81454 22.42355,-3.81454 12.7546,0 15.2491,0.44483 23.2736,4.15025 11.8793,5.48544 21.7311,16.13761 25.2386,27.28913 9.6778,30.76796 -17.4338,60.33082 -52.72999,57.49759 l -8.8861,-0.7133 -26.16722,51.60245 c -14.39197,28.38135 -28.87744,56.7453 -32.18992,63.03102 -3.31249,6.28571 -20.66436,40.35714 -38.55969,75.71428 -17.89534,35.35715 -35.2436,69.42858 -38.5517,75.71429 -3.30811,6.28571 -21.33564,41.64286 -40.06119,78.57146 -66.65119,131.4425 -76.20924,149.9476 -77.7072,150.4469 -0.83397,0.278 -1.51631,-0.1754 -1.51631,-1.0076 z M 913.82959,813.2219 c 0.94286,-0.94286 1.71429,-3.52807 1.71429,-5.74492 0,-5.27191 -5.37504,-8.0906 -10.75437,-5.63961 -4.56397,2.07948 -5.77242,5.17926 -3.74977,9.61848 1.21708,2.67122 2.68885,3.48033 6.33065,3.48033 2.6097,0 5.51635,-0.77143 6.4592,-1.71428 z M 1019.1153,679.58611 c 4.4108,-1.54816 9.7061,-5.04429 13.8444,-9.14061 15.5399,-15.3821 13.7247,-37.03624 -4.2539,-50.74903 -7.5019,-5.72189 -13.9526,-7.59914 -26.148,-7.60946 -16.42649,-0.0139 -30.34771,9.09815 -36.53922,23.91651 -2.64847,6.33871 -1.94637,19.08579 1.40859,25.57357 4.22897,8.17792 14.27928,16.26449 23.82174,19.16718 6.5309,1.9866 20.56899,1.40316 27.86639,-1.15816 z m -182.34126,-4.07234 c 4.21231,-2.28196 9.49875,-6.24117 11.74766,-8.79824 5.1818,-5.89185 9.06239,-18.78543 7.75359,-25.76193 -4.07867,-21.74117 -28.11971,-36.01606 -49.96234,-29.66623 -15.90968,4.62507 -26.74221,15.58746 -28.77092,29.11582 -2.44636,16.31349 9.5264,33.73783 26.57328,38.67295 9.25246,2.67861 24.13502,1.05524 32.65873,-3.56237 z"
             style="opacity:1;fill:#f9f9f9;fill-opacity:1;fill-rule:evenodd;stroke:none;stroke-width:8.24499989;stroke-linecap:square;stroke-linejoin:round;stroke-miterlimit:4;stroke-dasharray:none;stroke-dashoffset:0;stroke-opacity:1" />
          <path
             inkscape:connector-curvature="0"
             id="path8320"
             d="m 1053.1616,1158.1504 c -7.5072,-15.5178 -17.0371,-35.2856 -21.1775,-43.9285 -4.1405,-8.6429 -12.8222,-26.6429 -19.2928,-40 -6.4705,-13.3571 -15.47339,-32 -20.00629,-41.4286 -4.5329,-9.4285 -14.81448,-30.6428 -22.84794,-47.14283 -8.03345,-16.5 -16.71923,-34.5 -19.30172,-40 -2.5825,-5.5 -11.51206,-24.06938 -19.84346,-41.26529 -8.33141,-17.19591 -15.14801,-32.03021 -15.14801,-32.96511 0,-1.41305 19.27356,-40.15677 20.94464,-42.10293 1.30742,-1.52264 4.20933,4.04754 15.64047,30.02169 36.78372,83.58086 70.48971,169.05237 89.83101,227.79277 6.3546,19.2991 27.8696,94.6147 27.8696,97.5604 0,5.711 -4.6372,-1.673 -16.668,-26.5416 z"
             style="opacity:1;fill:#f9f9f9;fill-opacity:1;fill-rule:evenodd;stroke:none;stroke-width:8.24499989;stroke-linecap:square;stroke-linejoin:round;stroke-miterlimit:4;stroke-dasharray:none;stroke-dashoffset:0;stroke-opacity:1" />
        </g>
      </g>
    </g>
  </g>
</svg>
